# xmcd
#
# Track frame offsets:
#	150
#	9412
#	22470
#	36715
#	50610
#	65280
#	79820
#	91192
#	101630
#	113370
#
# Disc length: 1662 seconds
#
# Revision: 0
# Processed by: cddbd v1.5PL3 Copyright (c) Steve Scherf et al.
# Submitted via: dBpowerAMP V4.0
#
DISCID=7d067c0a
DTITLE=Frankie Lane - Country Classic
DYEAR=1900
DGENRE=Country
TTITLE0=Rawhide
TTITLE1=Moonlight Gambler
TTITLE2=Dont Fence Me In
TTITLE3=Cool Water
TTITLE4=Jealousy
TTITLE5=There  Must Be A Reason
TTITLE6=Rose, Rose I love You
TTITLE7=I Believe
TTITLE8=Strange Lady In Town
TTITLE9=Answer Me
EXTD=
EXTT0=
EXTT1=
EXTT2=
EXTT3=
EXTT4=
EXTT5=
EXTT6=
EXTT7=
EXTT8=
EXTT9=
PLAYORDER=
